<svg width="23" height="31" viewBox="0 0 23 31" fill="none" xmlns="http://www.w3.org/2000/svg">
<path d="M9.85812 19.1084L9.80417 19.2403L9.84019 19.4793L9.96279 20.0145L10.175 20.7202L10.3514 21.1418L10.5876 21.68L10.7551 21.9969L11.0122 22.4634L11.3201 22.9833L11.5624 23.3185L11.7656 23.5905L11.7746 23.7401L11.7478 23.8627L11.6343 23.9074L11.2933 23.9254L10.6953 23.8897L10.202 23.8267L9.76847 23.749L9.24205 23.5996L8.97601 23.4829L8.79962 23.4052L8.59917 23.3692L8.36899 23.3783L8.24655 23.4321H8.07905L7.68137 23.3692L7.4541 23.2915L7.20599 23.2736L6.81122 23.2649L6.51223 23.2377H6.23715L5.96513 23.2557L5.7797 23.3332L5.64805 23.3692L5.60315 23.4321L5.61219 23.5548L5.7377 23.7579L5.97402 24.084L6.11455 24.1436L6.33584 24.3022L6.58992 24.4429L6.86501 24.5324L7.25978 24.5414L7.61256 24.5054L7.91154 24.4369L8.16579 24.3562L8.27337 24.41L8.32425 24.5145L8.4139 24.5414L8.63212 24.5324L8.9072 24.5505L9.04789 24.5952L9.21524 24.5505L9.75942 24.6188L10.1301 24.6728L10.7372 24.8046L11.1796 24.9359L11.6163 25.0856L12.0016 25.262L12.1513 25.3696L12.5492 25.3875L12.7613 25.3337L12.8748 25.1034L12.9972 24.8225L12.962 24.5952L12.8125 24.3111L12.6122 23.8984L12.4532 23.4679L12.3366 22.9833L12.286 22.5679V22.1642L12.3279 21.6889L12.3818 21.4495L12.3188 21.2464L12.1875 21.1418L11.9244 20.9474L11.7385 20.8158L11.7032 20.5615L11.6163 20.2895L11.4516 20.0233L11.2754 19.7962L11.0542 19.5841L10.773 19.3716L10.4561 19.1353L10.2886 19.0547L10.1212 19.0039L9.98072 19.0277L9.85812 19.1084Z" fill="black" stroke="black" stroke-width="0.063464" stroke-miterlimit="2.613"/>
<path d="M8.83548 1.27895L8.83257 1.39557L8.70997 1.42255L8.55151 1.40171L8.31229 1.45243L8.133 1.50929L7.9894 1.51834L7.94449 1.58117L7.99538 1.66791L8.10311 1.69182L8.20472 1.66193L8.32134 1.61105L8.44103 1.60508L8.69511 1.61703L8.88943 1.67679L9.11961 1.73365L9.45752 1.88613L9.48757 1.95802L9.45171 2.01471L9.29325 2.07157L9.19763 2.11647L9.02721 2.23003L8.76716 2.36765L8.45024 2.59201L8.08841 2.75645L7.80138 2.94495L7.54132 3.05867L7.29612 3.11843L7.0808 3.12441L6.78472 3.13038L6.67101 3.16027L6.60527 3.29789L6.55438 3.44746L6.49753 3.54906L6.35393 3.76438L6.21631 4.00344L6.12359 4.12007L6.11454 4.25462L6.12359 4.44296V4.64325L6.24619 4.7539L6.35393 4.81076L6.4825 4.80171L6.69184 4.74486L6.928 4.67314L7.24798 4.54456L7.37656 4.55054L7.40644 4.6313L7.37656 4.709L7.26882 4.76585L6.94286 4.88845L6.69766 4.96017L6.64985 5.04094L6.6408 5.12768L6.72157 5.19939L6.89198 5.22023H7.0296L7.20292 5.21425L7.39142 5.16935L7.6636 5.02575L7.84305 4.98989L7.99554 4.95985L8.11216 4.99878L8.28257 4.98989L8.45008 5.01089L8.5877 5.09166L8.80301 5.11249L9.08407 5.19923L9.23656 5.22007L9.47271 5.17823L9.77477 5.19923L9.90625 5.24995L9.97813 5.37255L9.96311 5.53101L9.92725 5.72533L9.85553 5.94953L9.75393 6.23059L9.65233 6.53862L9.54459 6.81968L9.47287 7.014L9.22767 7.39682L8.93159 7.77043L8.66555 8.13823L8.32764 8.47599L8.0167 8.73912L7.81931 8.94829L7.7148 9.29219L7.5683 9.46567L7.38286 9.59715L7.15866 9.78242L6.81477 9.99176L6.52483 10.1383L6.33955 10.3505L6.20791 10.5211L6.07642 10.6019L5.89115 10.6946L5.77162 10.6676L5.53547 10.5599L5.27234 10.3894L4.88661 10.219L4.45307 9.99176L4.22887 9.82135L3.95072 9.59715L3.64575 9.34598L3.31688 9.22645L3.02694 9.17556L2.65623 9.25326L2.3931 9.39977L2.16583 9.55822L2.04921 9.84817L1.96845 10.0725L1.87573 10.4163L1.77122 10.6254L1.66655 10.9454L1.65169 11.3282L1.55897 11.5524L1.4543 11.9083L1.36159 12.2641L1.19118 12.5961L1.09846 12.9249L1.04467 13.3346L0.898164 13.6785L0.805447 13.8759L0.793494 14.0732L0.781541 14.4052V14.9852L0.715637 15.2243L0.754566 15.4336L0.739382 15.7775L0.859074 16.0526L0.951791 16.1184L1.1222 16.0644L1.2805 15.9208L1.50777 15.6457L1.70516 15.3288L1.78285 15.0657L1.73213 14.8534L1.66623 14.5903L1.58547 14.2734L1.50777 13.9416L1.46593 13.6903V13.4541L1.51972 13.1881L1.65121 12.7814L1.78269 12.5691L1.90238 12.4615L1.99494 12.3179L2.16551 12.3029L2.24628 12.2522L2.36581 12.1444L2.49729 12.0278L2.61682 11.8694L2.66754 11.6843L2.70954 11.5258L2.72149 11.3135L2.76042 11.1283L2.85314 11.0117L2.94585 10.9847L3.06538 11.0236L3.23596 11.1163L3.42123 11.3286L3.61862 11.6185L3.84282 11.8816L4.08204 12.0939L4.29429 12.2643L4.50298 12.3569L4.56872 12.4885L4.50298 12.5544L4.27862 12.5035L3.9617 12.4765L3.55207 12.3958L3.15745 12.3181L2.68208 12.3031L2.40409 12.3181L2.192 12.4496L1.9678 12.647L1.78237 12.9639L1.63877 13.3226L1.62391 13.5858L1.70467 14.0611L1.88994 14.6682L1.98266 15.1435L2.09929 15.607L2.18005 15.9331L2.21898 16.238L2.32349 16.5819L2.40425 17.1082L2.48194 17.2935L2.68224 17.4519L2.86767 17.637L3.07685 17.9541L3.22336 18.3248L3.44756 18.6537L3.77659 18.9706L4.01565 19.1171L4.17395 19.1291L4.30543 19.0901L4.3862 18.905L4.47584 18.7466L4.52963 18.5224V18.0079L4.46389 17.8614C4.45194 17.8614 4.45194 17.7688 4.45194 17.7569L4.42496 17.6643L4.31722 17.506L4.11984 17.3085L3.75204 17.1502L3.61749 17.1082L3.59358 16.884L3.60553 16.7404L3.35436 16.4503L3.1959 16.0794L3.06425 15.553L2.95667 15.0657L2.77431 14.6829L2.70857 14.2194L2.81308 13.9414L2.99851 13.8368H3.14195L3.35419 14.0222L3.65916 14.2076L3.97608 14.3243L4.7414 14.695L5.11226 14.9072V15.1046L5.45309 15.3018L5.8897 15.4483H6.80168L6.73594 15.6189L6.69718 15.7115L6.8138 15.9328L7.038 16.2647L7.39691 16.6204L7.83045 17.0959L8.20116 17.4246L8.89492 17.9569L9.45704 18.2588L9.87863 18.4831L10.4199 18.8509L10.9192 19.2068L11.3498 19.5715L11.7982 20.1785L11.8191 20.4324L11.9207 20.6957L12.1957 20.8931L12.4471 20.9918L12.6026 20.9706L12.7256 20.8513L12.9019 20.6629L12.9439 20.4089L13.1531 20.047L13.1979 19.7689L13.231 19.461L13.2518 19.2187L13.3206 19.0666L13.461 18.9977H13.5957L13.6046 19.0993L13.5062 19.2069L13.4195 19.44L13.3536 19.5836V19.76L13.3298 20.1338L13.2762 20.3221L13.1116 20.6061L12.8902 20.9711L12.6692 21.3687L12.5379 21.886L12.472 22.4273L12.5379 23.0313L12.6246 23.3842L12.8338 23.8476L13.0998 24.3978L13.309 24.8283L13.5959 25.2799L13.9365 25.6986L14.0024 25.842V25.9407L13.9577 26.0633L13.8382 26.2607L13.6498 26.5238L13.2639 27.0204L12.878 27.4387L12.5253 27.8248L12.3729 27.9144L12.0618 28.0339L11.8764 28.2105L11.7777 28.4108L11.5566 28.6857L11.3057 28.9606L10.9977 29.2806L10.8092 29.6095L10.6985 29.9414L10.6328 30.2163L10.6448 30.4376L10.7762 30.5782H11.2608L11.4698 30.5573L11.6885 30.426L11.9754 30.2944L12.02 30.1837H12.1187L12.271 30.1178L12.4146 29.9834L12.4925 29.4572L12.4474 29.3462L12.4266 29.2355L12.5044 29.2564L12.5908 29.2803L12.6808 29.2144L12.8244 29.1247L12.9767 28.9274L13.1651 28.6613L13.2638 28.4192L13.2846 28.2216L13.4074 28.1318L13.5838 28.0333L13.7274 27.9466L13.8469 27.7044L14.1011 27.4386L14.5762 26.9989L14.9378 26.7567L15.3031 26.5564L15.3893 26.4697L15.4224 26.3799L15.4998 26.2814L15.4458 26.15L15.4344 25.9078L15.3862 25.6808L15.3294 25.5493L15.2039 25.334L15.0037 25.0827L14.9052 24.8943L14.8842 24.6968V24.4309L14.9288 24.2786L15.0483 23.8689L15.1708 23.6716L15.3026 23.5939L15.5445 23.4414L15.8316 23.1962L16.2175 22.8675L16.4806 22.5924L16.7465 22.2844L17.0216 21.9734L17.2191 21.6235L17.3835 21.3244L17.5391 20.9837L17.6497 20.6067L17.6828 20.2572L17.7037 19.9911L17.7935 19.9044L17.892 19.8807L17.9788 19.9377L18.0565 20.123L18.0773 20.3769L18.1135 20.619L18.0897 20.7838L18.0686 21.0378V21.5791L18.1343 22.0067L18.2117 22.1173L18.2776 22.1083L18.3104 22.0306L18.2656 21.8542V21.5549L18.3554 21.3037L18.3974 20.939L18.442 20.6847L18.4992 20.5652H18.5649L18.6186 20.619L18.6725 20.8283L18.7171 21.0286L18.6963 21.3456L18.6304 21.7762L18.4302 22.195L18.2451 22.5926L18.1342 22.9334L18.1133 23.1427L18.1342 23.3848L18.2115 23.6179H18.3553L18.4301 23.5163L18.3879 23.4057L18.3553 23.2081L18.4866 23.0316L18.6393 22.8222L18.7409 22.625L18.9828 22.239L19.1804 21.886L19.2671 21.5001L19.3446 20.992V20.4866L19.2463 20.1336L19.0487 19.8585L19.0248 19.7272L19.1148 19.6825L19.2256 19.7361L19.3692 19.9126L19.5456 20.2325L19.6204 20.6059L19.6651 21.1023L19.7759 21.4462L19.7879 21.4552L19.9402 21.7961L20.0387 21.8319L20.0833 21.7423L20.0715 21.6883L19.9966 21.4344L19.9848 21.1803L19.9966 20.8067L20.0625 20.388V20.1787L20.0387 20.0023L19.8622 19.6492L19.7097 19.3951L19.7636 19.2966L19.9733 19.2518L20.2599 19.1205L20.5679 18.9558L20.843 18.7136L21.1959 18.2384L21.396 17.8438L21.5606 17.4671L21.6146 16.8632L21.6265 16.3219L21.5398 15.6522L21.4382 15.1678L21.3515 14.6714L21.2975 14.1542L21.3397 13.8253L21.4293 13.4157L21.6146 13.0089L21.8805 12.5904L21.9792 12.3244L22 12.1929L21.9136 12.0734L21.7915 12.016V12.2045L21.6928 12.3152L21.5164 12.5783L21.4177 12.6441L21.1426 12.976L21.0321 13.1524L20.9006 13.4485L20.757 13.4724L20.6256 13.3947L20.5477 13.0417L20.5689 12.6352L20.6587 12.2583L20.8772 11.9054L21.3193 11.2446L21.5829 10.7064L21.6156 10.3295L21.5736 10.21L21.4962 10.2877L21.3647 10.6166L21.1644 10.9485L20.8682 11.1908L20.5275 11.5197L20.0193 12.1147L19.9208 12.1057L19.888 12.0041L19.8761 11.7618L19.9089 11.3103L20.0644 10.8051L20.3395 10.2429L20.7042 9.79147L21.1557 9.40574L21.1977 9.31609L21.1437 9.27426L20.9137 9.39379L20.7251 9.51639L20.4052 9.79147L20.0077 10.1444L19.7234 10.5301L19.4454 11.0354L19.2931 11.445L19.2484 11.8518L19.2272 12.4019L19.3587 12.976L19.4902 13.4724L19.7443 14.2529L19.9089 15.1888L20.0076 15.9032V16.2893L19.9654 16.6958L19.9 17.0281L19.7771 17.4015L19.3136 17.9845L18.841 18.415L18.2341 18.7558L17.651 18.7886L17.5737 18.5044L17.3645 18.0948L17.0774 17.7002L16.8891 17.4673L16.6379 17.1264L16.0963 16.6094L15.5463 16.1579L15.3043 15.9693L14.5447 15.455L13.4534 14.5399L12.8582 13.8014L12.2066 12.734L12.03 12.0942L12.0746 11.6965L12.1644 11.6188L12.3949 11.7742L12.7596 11.9506L13.0559 11.9387L13.3964 12.0942L13.7613 12.3155L13.9496 12.468L14.1919 12.6355L14.4431 12.6684L14.4999 12.5578L14.434 12.5458L14.3565 12.5788L14.2341 12.5011L14.1262 12.3367L13.9709 12.0824L13.6718 11.8075L13.3759 11.6969L13.2111 11.6639L13.2442 11.5772H13.4742L13.7403 11.6639L14.126 11.918L14.3027 11.9957L14.3683 11.9059L14.2573 11.7534L13.9583 11.4872L13.4949 11.2451L12.9355 11.0268L12.8251 10.9372L12.9355 10.8595L13.1869 10.9821L13.6506 11.0598L14.1467 11.2572L14.4098 11.3887L14.8732 11.4544L15.2053 11.4097L15.3904 11.3229L15.6447 11.1674L15.7555 11.0598L15.7675 10.9821L15.6646 10.9905L15.5663 11.0921L15.2373 11.1998L14.9503 11.2446L14.708 11.2116L14.4749 11.0264L14.2657 10.7812L14.0145 10.5959L13.6379 10.5182L13.276 10.3956L13.1205 10.2969L13.1324 10.2103L13.276 10.2311H13.5959L13.9155 10.2103H14.2446L14.4211 10.1774L14.5647 10.2969L14.7947 10.3537H14.9831L15.0698 10.288L14.9175 10.2431L14.7291 10.1205L14.5316 9.93523L14.2118 9.76772L13.9486 9.73477L13.7067 9.70182L13.6167 9.64803L13.7934 9.54934H14.0801L14.3016 9.61508L14.52 9.72589L14.8727 9.87837L15.2255 9.89032L15.4139 9.80068L15.4678 9.68098L15.3242 9.61524L15.0283 9.60329L14.7741 9.51655L14.5531 9.32821L14.3108 9.20561L13.9911 9.15182L13.716 9.05313L13.5965 8.89774L13.6174 8.82004L13.7941 8.8559L14.0152 8.92164L14.1467 9.02034L14.335 9.04117L14.3559 8.94248L14.1586 8.78709L14.1014 8.64656L14.3673 8.6884L14.6185 8.81988L14.9383 8.85574L15.0611 9.08592L15.3898 9.2833L15.4077 9.28023L15.4796 9.25035L15.5663 9.19656L15.5242 9.13082L15.4014 9.1397L15.2908 8.98722L15.0693 8.6464L14.6838 8.30267L14.2891 8.12628L14.1783 7.9948L13.936 7.70776L13.7149 7.58823L13.6821 7.47758L13.7805 7.41184L14.0139 7.46563L14.4743 7.59711L14.6957 7.67481L14.8393 7.8751L15.0693 7.9948H15.2459L15.4791 8.06054L15.733 8.01563L15.8317 7.92889L15.6881 7.80629L15.479 7.7525L15.2367 7.71955L15.0929 7.59695L14.9046 7.32187L14.86 7.14548L14.6177 6.9271L14.3546 6.75959L14.0553 6.57416L13.7265 6.26629L13.7057 6.17648H13.7802L14.2108 6.5173L14.6505 6.77138L14.8837 6.94777L15.18 7.22269L15.4458 7.36613L15.5985 7.41103L15.676 7.28843L15.5655 7.2466L15.335 7.03726L15.2693 6.80417L15.0273 6.54104L14.827 6.37354L14.7283 6.12236L14.3877 5.6142L13.9243 5.20747L13.9031 5.07599L14.0675 5.09682L14.3009 5.21652L14.6744 5.37191L15.0603 5.39291L15.3473 5.52746L15.6552 5.58125L15.9183 5.50355L15.8975 5.39291L15.5983 5.327L15.335 5.20747L14.8059 4.95339L14.5192 4.798L14.3665 4.61256L14.4205 4.54666L14.498 4.60045L14.6175 4.64535L14.7731 4.65731H15.0273L15.2454 4.6334L15.5777 4.61256L15.8316 4.71126L16.0947 4.8996L16.2055 4.93255L16.2175 4.83386L16.1275 4.74421L15.8644 4.50192L15.4549 4.29258L15.159 4.25963L14.5969 4.22667L14.4655 4.07128L14.1787 3.78425L13.8588 3.56602L13.7393 3.45538L13.838 3.37768L13.9903 3.44343L14.2652 3.58702L14.5762 3.69767L14.9949 3.79636H15.3567L15.6558 4.1283L15.8981 4.27174L15.9849 4.18209L15.6558 3.69767L15.1385 3.32406L14.7078 3.22246L14.3431 2.83963L14.0233 2.65129L13.5838 2.54065L13.826 2.33147L14.2564 2.18787L14.5762 2.08918L14.651 1.99064L14.6091 1.91295L14.4324 1.86821L14.2652 1.83525L13.0215 1.85916L12.8003 1.61396L12.549 1.44953L12.2293 1.30593L11.8105 1.24002H11.4487L11.3501 1.10854L11.0093 0.74381L10.5997 0.369873L10.3485 0.788553L10.3366 0.920037L10.4563 1.07543L10.4682 1.20691L10.3816 1.28461L10.1035 1.30544L9.59805 1.16184L9.10168 1.05475L8.87134 1.06364L8.49466 1.14133L8.5394 1.27298L8.74874 1.26393L8.83548 1.27895Z" fill="black" stroke="black" stroke-width="0.063464" stroke-miterlimit="2.613"/>
<path d="M10.1721 1.14135L10.148 0.887264L9.78622 0.447747L9.67557 0.414795L9.59788 0.525441L9.60983 0.657087L9.48723 0.767572L9.47528 0.920216L9.61888 0.99791L9.81917 1.14135H10.1721Z" fill="black" stroke="black" stroke-width="0.063464" stroke-miterlimit="2.613"/>
<path d="M9.46643 0.854303L9.47531 0.833466" stroke="black" stroke-width="0.063464" stroke-miterlimit="2.613"/>
<path d="M13.2431 15.057L12.7585 14.4289L12.3397 13.813L12.0287 13.3288L11.9094 12.9968L11.8436 12.6768L11.7656 12.4586L11.6432 12.4019L11.5233 12.4347L11.4816 12.6441L11.5685 13.0088L11.7777 13.5381L12.0407 13.9655L12.3397 14.3424L12.6687 14.6712L12.8659 14.8596L13.2431 15.057ZM6.64388 3.81155L6.52726 3.97292L6.47928 4.13735L6.50028 4.25397L6.55714 4.28983L6.72158 4.25397L6.84417 4.18532L6.93091 4.09842L6.97873 3.93706L6.93091 3.85936L6.82624 3.77262L6.7395 3.76374L6.64388 3.81155ZM9.78334 3.37785H9.91789L10.0436 3.3302L10.0524 3.20453L10.0046 3.06109L9.94777 2.92654L9.83422 2.84868L9.68771 2.82171L9.48726 2.83075L9.36175 2.93542L9.30489 3.05205L9.34382 3.15672L9.47837 3.23441L9.62181 3.31211L9.78334 3.37785ZM20.5623 15.0928L20.4846 15.1705L20.4999 15.311L20.5233 15.5622L20.5505 15.8286L20.5682 16.0584L20.5564 16.3217L20.5445 16.6147L20.4905 16.8779L20.4275 17.108L20.32 17.3324L20.1798 17.5626L20.036 17.7871L19.8835 17.9932L19.7431 18.1785L19.6654 18.319L19.6084 18.4476L19.6202 18.5434L19.6926 18.5762L19.827 18.5434L20.0898 18.292L20.32 18.0229L20.4728 17.8075L20.6075 17.5566L20.6966 17.3264L20.775 17.0633L20.8314 16.7553L20.8373 16.6147V16.0526L20.7924 15.7746L20.7294 15.4845L20.6521 15.2424L20.6135 15.1198L20.5623 15.0928ZM8.95502 16.9018L9.10766 17.0723L9.60985 17.5088L9.88801 17.7569L10.1361 17.9814L10.3364 18.1696L10.3753 18.2321L10.4023 18.2772L10.3245 18.2714L10.1242 18.1455L9.78624 17.9215L9.26305 17.5686L9.05081 17.4248L8.82661 17.2489L8.58141 17.0244L8.40195 16.884L8.18663 16.6747L8.0461 16.5283L7.95936 16.3936L7.92657 16.2321L7.93255 16.0827L7.98925 16.0256L8.08794 16.0316L8.24349 16.1245L8.41083 16.286L8.53359 16.4351L8.66508 16.5669L8.79365 16.7254L8.95502 16.9018ZM7.8219 10.1234L7.82788 10.0426L7.88167 9.98288L8.07001 9.90519L8.46171 9.78259L8.85342 9.73461H9.09264L9.29003 9.77661L9.4753 9.86933L9.62181 10.0129L9.63085 10.0935L9.61292 10.1504L9.55009 10.1623L9.45446 10.1504L9.30796 10.1084L9.17034 10.0667L8.99993 10.0486H8.78768L8.60822 10.0457L8.44976 10.0607L8.27337 10.0905L8.13284 10.1294L7.99538 10.1593L7.90557 10.1652L7.8429 10.1564L7.8219 10.1234ZM12.8451 16.8719L12.7881 17.0303L12.7643 17.1557L12.7167 17.3833L12.7013 17.5655L12.7435 17.6165L12.8302 17.6283L12.8748 17.5923L12.8957 17.4968L12.962 17.3592L13.0275 17.2844L13.0993 17.2187L13.1441 17.1142L13.132 16.9376L13.0696 16.8451L13.0334 16.8118H12.9496L12.8873 16.8242L12.8451 16.8719ZM12.968 22.3168H12.911L12.8659 22.1823L12.8629 22.0296L12.8957 21.8203L12.9704 21.5334L13.0934 21.3569L13.204 21.2196L13.3025 21.2075L13.3294 21.2971L13.2698 21.4887L13.1856 21.7218L13.1441 21.8353L13.0662 22.0119L13.0066 22.2181L12.9889 22.2777L12.968 22.3168ZM16.8218 19.6796L16.7504 19.7692L16.7621 19.9128L16.8875 20.0861L16.9059 20.2745L16.9351 20.3284L16.9923 20.3434L17.0547 20.3074L17.0731 20.2236L17.1026 20.131L17.1149 20.0323V19.9007L17.0967 19.8022L17.0279 19.7154L16.9683 19.6616L16.8965 19.6557L16.8218 19.6796ZM11.3232 29.6455L11.2006 29.7678L11.1557 29.8576L11.1408 29.9354L11.1528 29.9981L11.1917 30.028H11.2276L11.3112 30.0101L11.3978 29.9534L11.4516 29.8725L11.4965 29.7859L11.5233 29.6752L11.5149 29.6126L11.4816 29.5856L11.4159 29.5885L11.3232 29.6455ZM12.2231 28.3357L12.1211 28.3985L12.0706 28.4615L12.0646 28.5151L12.0943 28.5691L12.1454 28.5838L12.2143 28.56L12.2707 28.5271L12.3163 28.4643L12.3431 28.3985L12.3337 28.3447L12.2978 28.3237L12.2231 28.3357ZM13.9097 26.658L13.4969 27.074L13.1564 27.4416L12.9141 27.7107L12.9018 27.7855L12.9286 27.8303L12.9855 27.8333L13.0722 27.7765L13.2278 27.6359L13.4255 27.4566L13.6376 27.2353L13.8377 27.0412L14.0141 26.8346L14.146 26.6403L14.1813 26.5535L14.146 26.509L14.1039 26.4998L13.9869 26.5745L13.9097 26.658ZM14.9081 26.0515L14.8482 26.114L14.8304 26.1649L14.8398 26.2158L14.881 26.2399H14.9172L14.9711 26.1799L15.0307 26.1261L15.0574 26.0843L15.055 26.0515L15.0248 26.0363L14.9593 26.0333L14.9081 26.0515ZM13.4607 23.7759H13.4132L13.3924 23.8029L13.3864 23.8922V24.0419L13.4161 24.2035L13.4671 24.3201L13.5747 24.4965L13.6464 24.6012L13.6852 24.6188L13.7064 24.6162L13.7178 24.5892L13.691 24.4516L13.6642 24.3829L13.6615 24.332L13.6584 24.1884L13.6256 24.0092L13.5776 23.8746L13.512 23.7971L13.4607 23.7759ZM6.62886 23.5755L6.52128 23.5963L6.42856 23.6263L6.40159 23.6653L6.39868 23.719L6.44649 23.7788L6.47928 23.8058L6.55116 23.8266L6.63193 23.8239L6.67069 23.8118L6.71851 23.7549L6.74548 23.6921L6.75743 23.6414L6.74839 23.5963L6.70962 23.5725L6.62886 23.5755ZM9.69062 23.9164L9.42749 23.8326L9.38856 23.8476L9.37968 23.9105L9.40956 23.9672L9.60985 24.0331L9.89091 24.1198L10.2468 24.2093L10.4023 24.2214L10.5637 24.2303L10.7192 24.2573L10.8956 24.2871L10.9972 24.2813L11.0302 24.2393V24.1825L11.0034 24.1466L10.9106 24.1227L10.7462 24.0868L10.5428 24.072L10.3275 24.039L10.0793 24.0122L9.92984 23.9912L9.80724 23.9642L9.69062 23.9164ZM12.1037 24.0032L12.0229 24.0629L12.0076 24.1198L12.0229 24.1705L12.0706 24.1915L12.1573 24.1705L12.2171 24.1227L12.2499 24.0629V24.0151L12.229 23.9882H12.1631L12.1037 24.0032ZM4.04247 18.3101L3.95573 18.292L3.91987 18.3011L3.90485 18.355L3.92294 18.4476L3.96769 18.4894L4.03052 18.5012L4.0814 18.4626L4.09029 18.4028L4.0814 18.3521L4.04247 18.3101ZM2.2844 14.5637L2.25145 14.7969L2.25743 15.0331L2.29329 15.2364L2.3621 15.4517L2.43091 15.5892L2.47872 15.6939L2.50861 15.7506L2.54737 15.7835H2.56837L2.5863 15.7565L2.60132 15.6759L2.55949 15.3979L2.5296 15.2274L2.46079 15.0331L2.40393 14.8507L2.40103 14.7071L2.36808 14.5666L2.33512 14.5367H2.30233L2.2844 14.5637ZM4.78405 14.2735L4.79891 14.2257L4.78696 14.166L4.71524 14.1001L4.57778 14.0374L4.38637 13.9537L4.22193 13.873L4.04247 13.8281L3.9378 13.7893L3.84218 13.7922L3.9139 13.846L4.12324 13.9715L4.30867 14.1091L4.49701 14.2257L4.57778 14.2616L4.69424 14.2795L4.78405 14.2735ZM2.1618 12.7815L2.07199 12.9371L2.06909 13.0446L2.10495 13.0745L2.15874 13.0537L2.21252 12.9789L2.24838 12.8952L2.27536 12.8324V12.7427L2.23352 12.7158L2.18862 12.7368L2.1618 12.7815ZM10.7221 6.30812L10.6175 6.32605L10.48 6.4577L10.2138 6.88219L9.93275 7.42638L9.77445 7.74039L9.5979 8.10512L9.38275 8.43706L9.32896 8.56273L9.33784 8.60747L9.3947 8.61054L9.57109 8.54173L9.82517 8.2757L10.16 7.80613L10.3694 7.4175L10.5577 7.10639L10.6982 6.73876L10.7611 6.50842L10.767 6.37984L10.7221 6.30812ZM5.74675 11.3433L5.80652 11.3673L5.82461 11.4391L5.77971 11.6962L5.65404 12.049L5.54339 12.3869L5.34907 12.629L5.25038 12.7038L5.14571 12.7427L5.08594 12.7008L5.07997 12.6231L5.1638 12.5334L5.25038 12.3898L5.36103 12.1477L5.42693 11.9175L5.48669 11.6902L5.60316 11.472L5.68101 11.3614L5.74675 11.3433ZM2.17683 10.5959L2.05116 10.8141L1.9943 11.1131L1.97928 11.2717V11.3882L2.00625 11.4479L2.08395 11.4271L2.22755 11.2058L2.30815 10.9427L2.37098 10.7094L2.37405 10.545L2.33819 10.4912L2.24257 10.5182L2.17683 10.5959ZM3.76142 11.0474L3.77046 11.1131L3.80616 11.158L3.88692 11.2388L3.97382 11.3105L4.07526 11.3673L4.14714 11.4121L4.17703 11.4092L4.19205 11.3822L4.18898 11.3315L4.15005 11.2746L4.08738 11.1998L3.98271 11.137L3.91681 11.0772L3.86011 11.0265L3.80923 11.0175L3.77934 11.0144L3.76142 11.0474ZM2.86736 9.65999L2.71794 9.67792L2.64607 9.7288L2.62216 9.8094L2.64316 9.86933L2.72683 9.90212L2.86429 9.88726L3.00789 9.83331L3.04972 9.76466L3.04682 9.71378L2.999 9.66903L2.94505 9.65401L2.86736 9.65999ZM10.3335 11.0204L10.4322 11.0474L10.4621 11.1011L10.474 11.2207L10.4889 11.3463L10.4592 11.436L10.3963 11.472L10.2439 11.4749L10.1423 11.451L10.0852 11.3762L10.0376 11.3165V11.2207L10.1122 11.125L10.2259 11.0354L10.3335 11.0204ZM7.74405 3.30613L7.88167 3.18951L8.13591 3.06707L8.39 2.95335L8.63213 2.83964L8.74277 2.78585L8.82661 2.77389L8.89526 2.78892L8.94904 2.87566L8.91319 2.93833L8.84454 2.95642L8.7607 2.97726L8.66799 3.05495L8.46171 3.18062L8.17775 3.25832L8.00136 3.30322L7.83079 3.31517L7.74405 3.30613ZM7.23588 3.81446L7.19098 3.88618L7.185 3.93996L7.22393 3.98487L7.27174 4.00877L7.3315 4.00587L7.36139 3.99085L7.38239 3.9222L7.37641 3.84434L7.36139 3.7996L7.31955 3.79055H7.27174L7.23588 3.81446ZM7.8219 4.33765L7.78007 4.34071L7.74712 4.37657L7.74114 4.43634L7.75907 4.48431L7.79202 4.50208H7.84888L7.89362 4.48124L7.90267 4.43634L7.88764 4.38255L7.86665 4.34976L7.8219 4.33765ZM9.56802 4.59787L9.86701 4.38562L10.0494 4.2719L10.16 4.20325H10.1989L10.2049 4.28386L10.1301 4.34362L10.0943 4.46638L10.0016 4.60982L9.83422 4.69042L9.66381 4.72951H9.51116L9.48435 4.67863L9.52311 4.62468L9.56802 4.59787ZM10.5756 4.70254L10.6743 4.57687L10.788 4.46929L10.8896 4.40064L10.9644 4.3945L11.0151 4.42746V4.52017L10.9883 4.62177L10.8746 4.72951L10.7401 4.81318L10.6026 4.84904L10.5367 4.82804L10.5278 4.77426L10.5756 4.70254ZM10.5936 5.22863L10.6325 5.15998L10.7252 5.11815L10.8866 5.04029L11.072 4.92674L11.1587 4.86406L11.2902 4.80107L11.3741 4.82207V4.91188L11.3411 4.99264L11.2245 5.1301L11.0631 5.2078L10.9016 5.27354L10.7341 5.27661H10.6296L10.5936 5.22863ZM10.2707 2.3494L10.175 2.38219L10.154 2.44809L10.193 2.51981L10.2976 2.51383L10.3844 2.48088L10.4471 2.40916L10.4202 2.3494L10.3364 2.31952L10.2707 2.3494ZM11.957 1.80214L11.9034 1.76321L11.9422 1.69166L12.0917 1.67664L12.1725 1.70345L12.2355 1.7364L12.2381 1.79019L12.1844 1.8141L12.1008 1.82007L12.02 1.8141L11.957 1.80214ZM12.2019 2.14297L12.2891 2.14006L12.355 2.15508L12.3876 2.17592L12.3759 2.20887L12.3279 2.26573L12.2623 2.27154L12.1844 2.25975L12.1395 2.23875L12.1068 2.19982L12.1454 2.16687L12.2019 2.14297ZM12.1844 3.6799L12.3431 3.61416L12.4804 3.54244L12.6241 3.46168L12.7341 3.42275L12.8005 3.40482L12.8659 3.30613L12.8183 3.26122L12.7257 3.2672L12.6148 3.29127L12.4922 3.33908L12.4054 3.34506L12.3936 3.27932L12.4054 3.15365L12.355 3.10277H12.2827L12.2355 3.16253L12.1899 3.22246L12.1185 3.30015L12.0675 3.42873V3.54244L12.0917 3.60512L12.0859 3.67086L12.1305 3.68588L12.1844 3.6799ZM12.1245 9.83638L12.2019 9.8304L12.2683 9.88419L12.2707 9.92909L12.2499 9.95607L12.1899 9.97384L12.1127 9.96786L12.0615 9.91714L12.074 9.8724L12.1245 9.83638ZM12.2499 9.66306H12.3397L12.3996 9.59715L12.3936 9.54934L12.3337 9.51041H12.2707L12.2231 9.52544L12.2019 9.57018V9.63608L12.2499 9.66306ZM12.349 9.09787L12.4145 9.08592H12.4775L12.5162 9.11871L12.5249 9.16959L12.5046 9.21159L12.4442 9.24131L12.3818 9.25035L12.3163 9.23533L12.2951 9.19059V9.1368L12.349 9.09787ZM12.4174 8.85267L12.5072 8.85574L12.5879 8.83167L12.6206 8.78095L12.597 8.71812L12.5314 8.68533L12.4532 8.69712L12.3818 8.73007L12.3668 8.78386L12.3699 8.81972L12.4174 8.85267ZM12.597 8.21884L12.6895 8.19186H12.7613L12.7941 8.23063L12.7821 8.29944L12.7375 8.35921L12.6955 8.41316L12.6122 8.43109H12.5283L12.4566 8.39523L12.4506 8.33837L12.5012 8.28458L12.5398 8.23967L12.597 8.21884ZM12.6895 7.74637L12.7821 7.73441L12.8659 7.75234L12.9018 7.80323V7.85395L12.8629 7.91678L12.7941 7.92873L12.7223 7.94682L12.6325 7.94376L12.5938 7.89885L12.5997 7.83311L12.6299 7.7882L12.6895 7.74637ZM12.7737 7.58791H12.8629L12.9349 7.564L13.0275 7.52507L13.0394 7.44738L13.0066 7.38455L12.9286 7.35773L12.848 7.36064L12.7911 7.38455L12.7403 7.41152L12.6805 7.46531L12.6687 7.52217L12.6929 7.56691L12.7375 7.58193L12.7737 7.58791ZM1.16905 15.1796L1.24691 15.1886L1.26775 15.2663L1.21396 15.332L1.12415 15.311L1.07941 15.2243L1.16905 15.1796ZM12.7107 7.03177L12.8541 6.95698L12.9225 6.94196L13.0066 6.951L13.0394 6.98089V7.01384L13.0066 7.06763L12.9496 7.11544L12.8659 7.14548L12.7672 7.15421L12.6865 7.14242L12.6658 7.09444L12.6778 7.05568L12.7107 7.03177ZM12.8393 6.79255L12.9436 6.74764L12.9855 6.69983L13.0066 6.65202V6.60711L12.9889 6.5803L12.9436 6.57723L12.8813 6.58321L12.8183 6.59823L12.7643 6.63102L12.7375 6.66397L12.7282 6.72083L12.7403 6.77155L12.7881 6.78657L12.8393 6.79255ZM12.8629 6.37984L12.9527 6.34705L13.0186 6.30215L13.0334 6.26338L13.0428 6.19764L13.0275 6.15564L12.9855 6.14369L12.9225 6.14676L12.848 6.16162L12.7971 6.19764L12.7613 6.23334L12.7553 6.2931L12.7643 6.34108L12.8125 6.36789L12.8629 6.37984ZM12.8629 5.31247L12.9378 5.3094L12.9826 5.32442L12.9948 5.36319L12.9704 5.40211L12.9318 5.44395L12.8688 5.45897H12.8031L12.7613 5.42021V5.3753L12.8005 5.33637L12.8629 5.31247ZM12.8688 5.95535L12.962 5.91044L13.0334 5.84761L13.0394 5.75505L13.0334 5.69819L12.9855 5.67122L12.9318 5.65636L12.8873 5.65927L12.8629 5.68931L12.8511 5.73099L12.8393 5.78494L12.8125 5.80287H12.7613L12.7466 5.83275L12.7525 5.88654L12.7911 5.93451L12.8302 5.94921L12.8688 5.95535ZM12.8813 4.98957L12.9467 4.94467L13.0157 4.94774L13.0572 4.99846L13.0485 5.04934L13.0157 5.09408L12.962 5.11508L12.911 5.12719L12.8659 5.13317L12.8065 5.12719L12.7911 5.09117L12.8065 5.04336L12.842 5.01057L12.8813 4.98957ZM12.8932 4.75035L12.9467 4.72951L13.0032 4.67863L13.0066 4.63066L13.0008 4.57994L12.9646 4.55894L12.9081 4.56798L12.8719 4.58898L12.8333 4.63066L12.8302 4.68154V4.72951L12.857 4.74437L12.8932 4.75035ZM12.7643 4.2719L12.8005 4.25397L12.848 4.25107L12.8873 4.27497L12.8957 4.31083L12.8813 4.36462L12.842 4.3945L12.8065 4.4155L12.7585 4.42148L12.7198 4.39757L12.7107 4.35558L12.7282 4.31988L12.7643 4.2719Z" fill="white" stroke="black" stroke-width="0.063464" stroke-miterlimit="2.613"/>
</svg>
